<svg xmlns="http://www.w3.org/2000/svg" viewBox="0 0 32 32" width="32" height="32">
  <!-- Ferni Orb Logo - 32x32 -->
  <defs>
    <linearGradient id="orbGradient" x1="0%" y1="100%" x2="100%" y2="0%">
      <stop offset="0%" stop-color="#3d5a35"/>
      <stop offset="40%" stop-color="#4a6741"/>
      <stop offset="100%" stop-color="#5a7a4d"/>
    </linearGradient>
    <radialGradient id="orbHighlight" cx="35%" cy="25%" r="40%">
      <stop offset="0%" stop-color="rgba(255,255,255,0.4)"/>
      <stop offset="100%" stop-color="rgba(255,255,255,0)"/>
    </radialGradient>
    
  </defs>

  <rect width="32" height="32" rx="6" fill="#F5F1E8"/>
  

  <!-- Main orb -->
  <circle cx="16" cy="16" r="10.656" fill="url(#orbGradient)"/>

  <!-- Top highlight -->
  <circle cx="16" cy="16" r="10.656" fill="url(#orbHighlight)"/>

  <!-- Waveform bars -->
  <g>
    <rect x="-5" y="15.2008" width="2" height="1.5984000000000003" rx="1" fill="rgba(255,255,255,0.95)"/>
    <rect x="0" y="14.8012" width="2" height="2.3976" rx="1" fill="rgba(255,255,255,0.95)"/>
    <rect x="5" y="14.4016" width="2" height="3.1968000000000005" rx="1" fill="rgba(255,255,255,0.95)"/>
    <rect x="10" y="14.1352" width="2" height="3.7296000000000005" rx="1" fill="rgba(255,255,255,0.95)"/>
    <rect x="15" y="13.8688" width="2" height="4.2624" rx="1" fill="rgba(255,255,255,0.95)"/>
    <rect x="20" y="14.1352" width="2" height="3.7296000000000005" rx="1" fill="rgba(255,255,255,0.95)"/>
    <rect x="25" y="14.4016" width="2" height="3.1968000000000005" rx="1" fill="rgba(255,255,255,0.95)"/>
    <rect x="30" y="14.8012" width="2" height="2.3976" rx="1" fill="rgba(255,255,255,0.95)"/>
    <rect x="35" y="15.2008" width="2" height="1.5984000000000003" rx="1" fill="rgba(255,255,255,0.95)"/>
  </g>
</svg>