<svg xmlns="http://www.w3.org/2000/svg" viewBox="0 0 1200 630" width="1200" height="630">
  <!-- Open Graph Image -->
  <defs>
    <linearGradient id="ogOrbGradient" x1="0%" y1="100%" x2="100%" y2="0%">
      <stop offset="0%" stop-color="#3d5a35"/>
      <stop offset="40%" stop-color="#4a6741"/>
      <stop offset="100%" stop-color="#5a7a4d"/>
    </linearGradient>
  </defs>

  <rect width="1200" height="630" fill="#F5F1E8"/>

  <!-- Orb Logo -->
  <g transform="translate(600, 250)">
    <circle cx="0" cy="0" r="100" fill="url(#ogOrbGradient)"/>
    <!-- Waveform bars -->
    <rect x="-36" y="-12" width="4" height="24" rx="2" fill="rgba(255,255,255,0.95)"/>
    <rect x="-27" y="-18" width="4" height="36" rx="2" fill="rgba(255,255,255,0.95)"/>
    <rect x="-18" y="-24" width="4" height="48" rx="2" fill="rgba(255,255,255,0.95)"/>
    <rect x="-9" y="-28" width="4" height="56" rx="2" fill="rgba(255,255,255,0.95)"/>
    <rect x="0" y="-32" width="4" height="64" rx="2" fill="rgba(255,255,255,0.95)"/>
    <rect x="9" y="-28" width="4" height="56" rx="2" fill="rgba(255,255,255,0.95)"/>
    <rect x="18" y="-24" width="4" height="48" rx="2" fill="rgba(255,255,255,0.95)"/>
    <rect x="27" y="-18" width="4" height="36" rx="2" fill="rgba(255,255,255,0.95)"/>
    <rect x="36" y="-12" width="4" height="24" rx="2" fill="rgba(255,255,255,0.95)"/>
  </g>

  <!-- Text -->
  <text x="600" y="430" font-family="system-ui, -apple-system, sans-serif" font-size="72" font-weight="700" fill="#2c2520" text-anchor="middle">Ferni</text>
  <text x="600" y="490" font-family="system-ui, -apple-system, sans-serif" font-size="28" font-weight="400" fill="#5a5550" text-anchor="middle">Your AI Life Coach</text>
</svg>