<svg width="1290" height="2796" viewBox="0 0 1290 2796" xmlns="http://www.w3.org/2000/svg">
  <!-- App Store Screenshot 5: Privacy &amp; Security -->
  
  <defs>
    <linearGradient id="bgGrad5" x1="0%" y1="0%" x2="0%" y2="100%">
      <stop offset="0%" style="stop-color:#F5F1E8"/>
      <stop offset="100%" style="stop-color:#E8E0D5"/>
    </linearGradient>
  </defs>
  
  <rect width="1290" height="2796" fill="url(#bgGrad5)"/>
  
  <!-- Top marketing text -->
  <text x="645" y="180" font-family="'Plus Jakarta Sans', -apple-system, sans-serif" font-size="42" font-weight="800" fill="#2C2520" text-anchor="middle">Your Privacy Protected</text>
  <text x="645" y="240" font-family="'Inter', -apple-system, sans-serif" font-size="32" font-weight="500" fill="#5C544A" text-anchor="middle">Talk freely. Your words stay yours.</text>
  
  <!-- iPhone frame -->
  <g transform="translate(195, 350)">
    <rect x="0" y="0" width="900" height="1800" rx="120" fill="#1a1a1a"/>
    <rect x="20" y="20" width="860" height="1760" rx="100" fill="#F5F1E8"/>
    <rect x="320" y="50" width="260" height="80" rx="40" fill="#1a1a1a"/>
    
    <!-- Status bar -->
    <text x="80" y="110" font-family="-apple-system, sans-serif" font-size="36" font-weight="600" fill="#2C2520">9:41</text>
    
    <!-- Shield visualization -->
    <g transform="translate(430, 500)">
      <path d="M0 -200 L150 -150 L150 60 C150 180 0 240 0 240 C0 240 -150 180 -150 60 L-150 -150 Z" 
            fill="#4a6741" opacity="0.1" stroke="#4a6741" stroke-width="3"/>
      <path d="M0 -150 L110 -110 L110 40 C110 130 0 180 0 180 C0 180 -110 130 -110 40 L-110 -110 Z" 
            fill="#4a6741" opacity="0.15"/>
      
      <!-- Ferni in shield -->
      <circle cx="0" cy="0" r="70" fill="#4a6741"/>
      <text x="0" y="12" font-family="-apple-system, sans-serif" font-size="36" font-weight="600" fill="white" text-anchor="middle">FN</text>
      
      <!-- Lock icon -->
      <g transform="translate(0, -110)">
        <rect x="-20" y="0" width="40" height="30" rx="5" fill="none" stroke="#4a6741" stroke-width="4"/>
        <path d="M-12 0 L-12 -15 A12 12 0 0 1 12 -15 L12 0" fill="none" stroke="#4a6741" stroke-width="4"/>
        <circle cx="0" cy="15" r="6" fill="#4a6741"/>
      </g>
    </g>
    
    <!-- Privacy features -->
    <g transform="translate(80, 850)">
      <rect x="0" y="0" width="700" height="120" rx="25" fill="#4a6741" opacity="0.08"/>
      <circle cx="70" cy="60" r="35" fill="#4a6741" opacity="0.2"/>
      <path d="M55 60 L65 70 L85 50" fill="none" stroke="#4a6741" stroke-width="4" stroke-linecap="round"/>
      <text x="130" y="50" font-family="'Plus Jakarta Sans', sans-serif" font-size="30" font-weight="700" fill="#2C2520">End-to-end encrypted</text>
      <text x="130" y="85" font-family="'Inter', sans-serif" font-size="24" font-weight="400" fill="#5C544A">Your conversations are secure</text>
    </g>
    
    <g transform="translate(80, 1000)">
      <rect x="0" y="0" width="700" height="120" rx="25" fill="#4a6741" opacity="0.08"/>
      <circle cx="70" cy="60" r="35" fill="#4a6741" opacity="0.2"/>
      <path d="M55 60 L65 70 L85 50" fill="none" stroke="#4a6741" stroke-width="4" stroke-linecap="round"/>
      <text x="130" y="50" font-family="'Plus Jakarta Sans', sans-serif" font-size="30" font-weight="700" fill="#2C2520">Never sold. Never shared.</text>
      <text x="130" y="85" font-family="'Inter', sans-serif" font-size="24" font-weight="400" fill="#5C544A">Your data belongs to you only</text>
    </g>
    
    <g transform="translate(80, 1150)">
      <rect x="0" y="0" width="700" height="120" rx="25" fill="#4a6741" opacity="0.08"/>
      <circle cx="70" cy="60" r="35" fill="#4a6741" opacity="0.2"/>
      <path d="M55 60 L65 70 L85 50" fill="none" stroke="#4a6741" stroke-width="4" stroke-linecap="round"/>
      <text x="130" y="50" font-family="'Plus Jakarta Sans', sans-serif" font-size="30" font-weight="700" fill="#2C2520">Delete anytime</text>
      <text x="130" y="85" font-family="'Inter', sans-serif" font-size="24" font-weight="400" fill="#5C544A">Erase all your data in one tap</text>
    </g>
    
    <g transform="translate(80, 1300)">
      <rect x="0" y="0" width="700" height="120" rx="25" fill="#4a6741" opacity="0.08"/>
      <circle cx="70" cy="60" r="35" fill="#4a6741" opacity="0.2"/>
      <path d="M55 60 L65 70 L85 50" fill="none" stroke="#4a6741" stroke-width="4" stroke-linecap="round"/>
      <text x="130" y="50" font-family="'Plus Jakarta Sans', sans-serif" font-size="30" font-weight="700" fill="#2C2520">No ads. Ever.</text>
      <text x="130" y="85" font-family="'Inter', sans-serif" font-size="24" font-weight="400" fill="#5C544A">We're not the product—you're not either</text>
    </g>
    
    <g transform="translate(80, 1450)">
      <rect x="0" y="0" width="700" height="120" rx="25" fill="#4a6741" opacity="0.08"/>
      <circle cx="70" cy="60" r="35" fill="#4a6741" opacity="0.2"/>
      <path d="M55 60 L65 70 L85 50" fill="none" stroke="#4a6741" stroke-width="4" stroke-linecap="round"/>
      <text x="130" y="50" font-family="'Plus Jakarta Sans', sans-serif" font-size="30" font-weight="700" fill="#2C2520">HIPAA-aligned practices</text>
      <text x="130" y="85" font-family="'Inter', sans-serif" font-size="24" font-weight="400" fill="#5C544A">Healthcare-grade privacy standards</text>
    </g>
    
    <!-- Home indicator -->
    <rect x="330" y="1700" width="200" height="12" rx="6" fill="#2C2520"/>
  </g>
  
  <!-- Bottom tagline -->
  <text x="645" y="2450" font-family="'Inter', -apple-system, sans-serif" font-size="36" font-weight="600" fill="#5C544A" text-anchor="middle">Your conversations. Your control.</text>
  <text x="645" y="2510" font-family="'Inter', -apple-system, sans-serif" font-size="36" font-weight="600" fill="#5C544A" text-anchor="middle">Privacy first, always.</text>
</svg>
