<svg xmlns="http://www.w3.org/2000/svg" viewBox="0 0 16 16" width="16" height="16">
  <!-- Ferni Orb Logo - 16x16 -->
  <defs>
    <linearGradient id="orbGradient" x1="0%" y1="100%" x2="100%" y2="0%">
      <stop offset="0%" stop-color="#3d5a35"/>
      <stop offset="40%" stop-color="#4a6741"/>
      <stop offset="100%" stop-color="#5a7a4d"/>
    </linearGradient>
    <radialGradient id="orbHighlight" cx="35%" cy="25%" r="40%">
      <stop offset="0%" stop-color="rgba(255,255,255,0.4)"/>
      <stop offset="100%" stop-color="rgba(255,255,255,0)"/>
    </radialGradient>
    
  </defs>

  <rect width="16" height="16" rx="2" fill="#F5F1E8"/>
  

  <!-- Main orb -->
  <circle cx="8" cy="8" r="5.328" fill="url(#orbGradient)"/>

  <!-- Top highlight -->
  <circle cx="8" cy="8" r="5.328" fill="url(#orbHighlight)"/>

  <!-- Waveform bars -->
  <g>
    <rect x="-13" y="7.6004" width="2" height="0.7992000000000001" rx="1" fill="rgba(255,255,255,0.95)"/>
    <rect x="-8" y="7.4006" width="2" height="1.1988" rx="1" fill="rgba(255,255,255,0.95)"/>
    <rect x="-3" y="7.2008" width="2" height="1.5984000000000003" rx="1" fill="rgba(255,255,255,0.95)"/>
    <rect x="2" y="7.0676" width="2" height="1.8648000000000002" rx="1" fill="rgba(255,255,255,0.95)"/>
    <rect x="7" y="6.9344" width="2" height="2.1312" rx="1" fill="rgba(255,255,255,0.95)"/>
    <rect x="12" y="7.0676" width="2" height="1.8648000000000002" rx="1" fill="rgba(255,255,255,0.95)"/>
    <rect x="17" y="7.2008" width="2" height="1.5984000000000003" rx="1" fill="rgba(255,255,255,0.95)"/>
    <rect x="22" y="7.4006" width="2" height="1.1988" rx="1" fill="rgba(255,255,255,0.95)"/>
    <rect x="27" y="7.6004" width="2" height="0.7992000000000001" rx="1" fill="rgba(255,255,255,0.95)"/>
  </g>
</svg>